<?xml version="1.0" encoding="UTF-8" standalone="no"?>
<!-- Created with Inkscape (http://www.inkscape.org/) -->

<svg
   xmlns:dc="http://purl.org/dc/elements/1.1/"
   xmlns:cc="http://creativecommons.org/ns#"
   xmlns:rdf="http://www.w3.org/1999/02/22-rdf-syntax-ns#"
   xmlns:svg="http://www.w3.org/2000/svg"
   xmlns="http://www.w3.org/2000/svg"
   xmlns:sodipodi="http://sodipodi.sourceforge.net/DTD/sodipodi-0.dtd"
   xmlns:inkscape="http://www.inkscape.org/namespaces/inkscape"
   width="210mm"
   height="297mm"
   viewBox="0 0 744.09448819 1052.3622047"
   id="svg2"
   version="1.1"
   inkscape:version="0.91 r13725"
   sodipodi:docname="goods_0.svg">
  <sodipodi:namedview
     id="base"
     pagecolor="#ffffff"
     bordercolor="#666666"
     borderopacity="1.0"
     inkscape:pageopacity="0.0"
     inkscape:pageshadow="2"
     inkscape:zoom="1.4"
     inkscape:cx="220.63967"
     inkscape:cy="257.67216"
     inkscape:document-units="px"
     inkscape:current-layer="layer1"
     showgrid="false"
     inkscape:window-width="1855"
     inkscape:window-height="1056"
     inkscape:window-x="65"
     inkscape:window-y="24"
     inkscape:window-maximized="1" />
  <defs
     id="defs4" />
  <metadata
     id="metadata7">
    <rdf:RDF>
      <cc:Work
         rdf:about="">
        <dc:format>image/svg+xml</dc:format>
        <dc:type
           rdf:resource="http://purl.org/dc/dcmitype/StillImage" />
        <dc:title></dc:title>
      </cc:Work>
    </rdf:RDF>
  </metadata>
  <g
     id="layer1"
     inkscape:groupmode="layer"
     inkscape:label="Layer 1">
    <path
       inkscape:connector-curvature="0"
       d="m 364.64286,545.21931 22.5,2.85718 17.14285,-5.35718 z"
       style="fill:#ffeeaa;stroke:none;stroke-width:1"
       id="path4521" />
    <path
       inkscape:connector-curvature="0"
       d="m 387.14286,548.07649 20.35714,10 -3.21429,-15.35718 z"
       style="fill:#ffe680;stroke:none;stroke-width:1"
       id="path4523" />
    <path
       inkscape:connector-curvature="0"
       d="M 418.92856,565.9336 404.28571,542.71931 407.5,558.07649 Z"
       style="fill:#ffeeaa;stroke:none;stroke-width:1"
       id="path4525" />
    <path
       inkscape:connector-curvature="0"
       d="m 364.64286,545.21931 11.42856,26.78576 11.07144,-23.92858 z"
       style="fill:#ffdd55;stroke:none;stroke-width:1"
       id="path4527" />
    <path
       inkscape:connector-curvature="0"
       d="M 316.42856,575.9336 337.5,569.86219 341.07142,553.4336 Z"
       style="fill:#ffcc00;stroke:none;stroke-width:1"
       id="path4529" />
    <path
       inkscape:connector-curvature="0"
       d="M 376.07142,572.00507 407.5,558.07649 l -20.35714,-10 z"
       style="fill:#ffeeaa;stroke:none;stroke-width:1"
       id="path4531" />
    <path
       inkscape:connector-curvature="0"
       d="m 341.07142,553.4336 35,18.57147 -11.42856,-26.78576 z"
       style="fill:#ffeeaa;stroke:none;stroke-width:1"
       id="path4533" />
    <path
       inkscape:connector-curvature="0"
       d="m 407.5,558.07649 11.42856,18.57141 0,-10.7143 z"
       style="fill:#ffe680;stroke:none;stroke-width:1"
       id="path4535" />
    <path
       inkscape:connector-curvature="0"
       d="m 337.5,569.86219 38.57142,2.14288 -35,-18.57147 z"
       style="fill:#ffe680;stroke:none;stroke-width:1"
       id="path4537" />
    <path
       inkscape:connector-curvature="0"
       d="M 407.5,558.07649 400,595.9336 418.92856,576.6479 Z"
       style="fill:#ffdd55;stroke:none;stroke-width:1"
       id="path4543" />
    <path
       inkscape:connector-curvature="0"
       d="M 376.07142,572.00507 400,595.9336 l 7.5,-37.85711 z"
       style="fill:#ffdd55;stroke:none;stroke-width:1"
       id="path4545" />
    <path
       inkscape:connector-curvature="0"
       d="M 347.14286,602.36219 376.07142,572.00507 337.5,569.86219 Z"
       style="fill:#ffd42a;stroke:none;stroke-width:1"
       id="path4547" />
    <path
       inkscape:connector-curvature="0"
       d="m 316.42856,575.9336 30.7143,26.42859 -9.64286,-32.5 z"
       style="fill:#d4aa00;stroke:none;stroke-width:1"
       id="path4549" />
    <path
       inkscape:connector-curvature="0"
       d="m 430.71427,609.50507 22.5,-24.64288 -34.28571,-8.21429 z"
       style="fill:#ff5555;stroke:none;stroke-width:1"
       id="path4551" />
    <path
       inkscape:connector-curvature="0"
       d="M 374.64286,610.21931 400,595.9336 376.07142,572.00507 Z"
       style="fill:#ffdd55;stroke:none;stroke-width:1"
       id="path4555" />
    <path
       inkscape:connector-curvature="0"
       d="m 347.14286,602.36219 27.5,7.85712 1.42856,-38.21424 z"
       style="fill:#d4aa00;stroke:none;stroke-width:1"
       id="path4559" />
    <path
       inkscape:connector-curvature="0"
       d="m 430.71427,609.50507 12.5,3.57142 10,-28.2143 z"
       style="fill:#ff8080;stroke:none;stroke-width:1"
       id="path4563" />
    <path
       inkscape:connector-curvature="0"
       d="m 400,595.9336 30.71427,13.57147 -11.78571,-32.85717 z"
       style="fill:#ffe680;stroke:none;stroke-width:1"
       id="path4565" />
    <path
       inkscape:connector-curvature="0"
       d="m 443.21427,613.07649 21.07144,-8.92859 -11.07144,-19.28571 z"
       style="fill:#ff5555;stroke:none;stroke-width:1"
       id="path4567" />
    <path
       inkscape:connector-curvature="0"
       d="m 207.67856,611.46931 40.89287,5.53576 54.99999,-29.64288 z"
       style="fill:#d40000;stroke:none;stroke-width:1"
       id="path4569" />
    <path
       inkscape:connector-curvature="0"
       d="m 303.57142,587.36219 43.57144,15 -30.7143,-26.42859 z"
       style="fill:#aa8800;stroke:none;stroke-width:1"
       id="path4571" />
    <path
       inkscape:connector-curvature="0"
       d="m 248.57143,617.00507 29.64284,3.92853 25.35715,-33.57141 z"
       style="fill:#800000;stroke:none;stroke-width:1"
       id="path4573" />
    <path
       inkscape:connector-curvature="0"
       d="m 464.28571,604.1479 76.42859,5.71429 -87.50003,-25 z"
       style="fill:#ff8080;stroke:none;stroke-width:1"
       id="path4575" />
    <path
       inkscape:connector-curvature="0"
       d="M 402.14286,618.79078 430.71427,609.50507 400,595.9336 Z"
       style="fill:#ffd42a;stroke:none;stroke-width:1"
       id="path4577" />
    <path
       inkscape:connector-curvature="0"
       d="m 315,622.00507 32.14286,-19.64288 -43.57144,-15 z"
       style="fill:#d4aa00;stroke:none;stroke-width:1"
       id="path4579" />
    <path
       inkscape:connector-curvature="0"
       d="m 374.64286,610.21931 27.5,8.57147 L 400,595.9336 Z"
       style="fill:#d4aa00;stroke:none;stroke-width:1"
       id="path4581" />
    <path
       inkscape:connector-curvature="0"
       d="m 485,622.71931 55.7143,-12.85712 -76.42859,-5.71429 z"
       style="fill:#ff5555;stroke:none;stroke-width:1"
       id="path4583" />
    <path
       inkscape:connector-curvature="0"
       d="m 446.78571,626.29078 17.5,-22.14288 -21.07144,8.92859 z"
       style="fill:#ff8080;stroke:none;stroke-width:1"
       id="path4585" />
    <path
       inkscape:connector-curvature="0"
       d="M 278.21427,620.9336 315,622.00507 303.57142,587.36219 Z"
       style="fill:#aa8800;stroke:none;stroke-width:1"
       id="path4587" />
    <path
       inkscape:connector-curvature="0"
       d="m 430.71427,609.50507 16.07144,16.78571 -3.57144,-13.21429 z"
       style="fill:#ff5555;stroke:none;stroke-width:1"
       id="path4589" />
    <path
       inkscape:connector-curvature="0"
       d="M 327.85715,640.21931 347.14286,602.36219 315,622.00507 Z"
       style="fill:#aa8800;stroke:none;stroke-width:1"
       id="path4591" />
    <path
       inkscape:connector-curvature="0"
       d="M 446.78571,626.29078 485,622.71931 464.28571,604.1479 Z"
       style="fill:#ff2a2a;stroke:none;stroke-width:1"
       id="path4593" />
    <path
       inkscape:connector-curvature="0"
       d="m 383.92856,644.1479 18.2143,-25.35712 -27.5,-8.57147 z"
       style="fill:#d4aa00;stroke:none;stroke-width:1"
       id="path4595" />
    <path
       inkscape:connector-curvature="0"
       d="M 248.57143,617.00507 277.5,640.57649 278.21427,620.9336 Z"
       style="fill:#550000;stroke:none;stroke-width:1"
       id="path4597" />
    <path
       inkscape:connector-curvature="0"
       d="M 277.5,640.57649 315,622.00507 278.21427,620.9336 Z"
       style="fill:#806600;stroke:none;stroke-width:1"
       id="path4599" />
    <path
       inkscape:connector-curvature="0"
       d="M 308.57142,655.57649 327.85715,640.21931 315,622.00507 Z"
       style="fill:#806600;stroke:none;stroke-width:1"
       id="path4601" />
    <path
       inkscape:connector-curvature="0"
       d="m 383.92856,644.1479 25,10 -6.7857,-35.35712 z"
       style="fill:#aa8800;stroke:none;stroke-width:1"
       id="path4603" />
    <path
       inkscape:connector-curvature="0"
       d="m 277.5,640.57649 31.07142,15 L 315,622.00507 Z"
       style="fill:#554400;stroke:none;stroke-width:1"
       id="path4605" />
    <path
       inkscape:connector-curvature="0"
       d="m 327.85715,640.21931 46.78571,-30 -27.5,-7.85712 z"
       style="fill:#ffcc00;stroke:none;stroke-width:1"
       id="path4607" />
    <path
       inkscape:connector-curvature="0"
       d="m 408.92856,654.1479 21.78571,-44.64283 -28.57141,9.28571 z"
       style="fill:#ffdd55;stroke:none;stroke-width:1"
       id="path4609" />
    <path
       inkscape:connector-curvature="0"
       d="m 408.92856,654.1479 37.85715,-27.85712 -16.07144,-16.78571 z"
       style="fill:#ffe680;stroke:none;stroke-width:1"
       id="path4611" />
    <path
       inkscape:connector-curvature="0"
       d="m 327.85715,640.21931 56.07141,3.92859 -9.2857,-33.92859 z"
       style="fill:#ffdd55;stroke:none;stroke-width:1"
       id="path4613" />
    <path
       inkscape:connector-curvature="0"
       d="M 451.78571,665.9336 485,622.71931 l -38.21429,3.57147 z"
       style="fill:#ff5555;stroke:none;stroke-width:1"
       id="path4615" />
    <path
       inkscape:connector-curvature="0"
       d="m 272.85715,661.29078 35.71427,-5.71429 -31.07142,-15 z"
       style="fill:#aa0000;stroke:none;stroke-width:1"
       id="path4617" />
    <path
       inkscape:connector-curvature="0"
       d="M 248.57143,617.00507 272.85715,661.29078 277.5,640.57649 Z"
       style="fill:#800000;stroke:none;stroke-width:1"
       id="path4619" />
    <path
       inkscape:connector-curvature="0"
       d="m 408.92856,654.1479 42.85715,11.7857 -5,-39.64282 z"
       style="fill:#ff2a2a;stroke:none;stroke-width:1"
       id="path4621" />
    <path
       inkscape:connector-curvature="0"
       d="m 308.57142,655.57649 29.64285,18.92858 -10.35712,-34.28576 z"
       style="fill:#d4aa00;stroke:none;stroke-width:1"
       id="path4623" />
    <path
       inkscape:connector-curvature="0"
       d="m 338.21427,674.50507 45.71429,-30.35717 -56.07141,-3.92859 z"
       style="fill:#ffcc00;stroke:none;stroke-width:1"
       id="path4625" />
    <path
       inkscape:connector-curvature="0"
       d="m 383.92856,644.1479 14.64286,34.64288 10.35714,-24.64288 z"
       style="fill:#d4aa00;stroke:none;stroke-width:1"
       id="path4627" />
    <path
       inkscape:connector-curvature="0"
       d="m 338.21427,674.50507 25,8.57142 20.71429,-38.92859 z"
       style="fill:#d4aa00;stroke:none;stroke-width:1"
       id="path4629" />
    <path
       inkscape:connector-curvature="0"
       d="m 363.21427,683.07649 35.35715,-4.28571 -14.64286,-34.64288 z"
       style="fill:#aa8800;stroke:none;stroke-width:1"
       id="path4631" />
    <path
       inkscape:connector-curvature="0"
       d="M 398.57142,678.79078 451.78571,665.9336 408.92856,654.1479 Z"
       style="fill:#ff0000;stroke:none;stroke-width:1"
       id="path4633" />
    <path
       inkscape:connector-curvature="0"
       d="m 207.67856,611.46931 65.17859,49.82147 -24.28572,-44.28571 z"
       style="fill:#aa0000;stroke:none;stroke-width:1"
       id="path4635" />
    <path
       inkscape:connector-curvature="0"
       d="m 365,715.9336 33.57142,-37.14282 -35.35715,4.28571 z"
       style="fill:#ff0000;stroke:none;stroke-width:1"
       id="path4637" />
    <path
       inkscape:connector-curvature="0"
       d="M 338.21427,674.50507 365,715.9336 363.21427,683.07649 Z"
       style="fill:#d40000;stroke:none;stroke-width:1"
       id="path4639" />
    <path
       inkscape:connector-curvature="0"
       d="m 272.85715,661.29078 65.35712,13.21429 -29.64285,-18.92858 z"
       style="fill:#d40000;stroke:none;stroke-width:1"
       id="path4641" />
    <path
       inkscape:connector-curvature="0"
       d="M 451.78571,665.9336 540.7143,609.86219 485,622.71931 Z"
       style="fill:#ff2a2a;stroke:none;stroke-width:1"
       id="path4643" />
    <path
       inkscape:connector-curvature="0"
       d="M 272.85715,661.29078 365,715.9336 338.21427,674.50507 Z"
       style="fill:#ff0000;stroke:none;stroke-width:1"
       id="path4645" />
    <path
       inkscape:connector-curvature="0"
       d="m 365,715.9336 86.78571,-50 -53.21429,12.85718 z"
       style="fill:#ff2a2a;stroke:none;stroke-width:1"
       id="path4647" />
    <path
       id="path4819"
       style="fill:#ffeeaa;stroke:none;stroke-width:1"
       d="m 364.64286,545.21931 22.5,2.85718 17.14285,-5.35718 z"
       inkscape:connector-curvature="0" />
    <path
       id="path4821"
       style="fill:#ffe680;stroke:none;stroke-width:1"
       d="m 387.14286,548.07649 20.35714,10 -3.21429,-15.35718 z"
       inkscape:connector-curvature="0" />
    <path
       id="path4823"
       style="fill:#ffeeaa;stroke:none;stroke-width:1"
       d="M 418.92856,565.9336 404.28571,542.71931 407.5,558.07649 Z"
       inkscape:connector-curvature="0" />
    <path
       id="path4825"
       style="fill:#ffdd55;stroke:none;stroke-width:1"
       d="m 364.64286,545.21931 11.42856,26.78576 11.07144,-23.92858 z"
       inkscape:connector-curvature="0" />
    <path
       id="path4827"
       style="fill:#ffcc00;stroke:none;stroke-width:1"
       d="M 316.42856,575.9336 337.5,569.86219 341.07142,553.4336 Z"
       inkscape:connector-curvature="0" />
    <path
       id="path4829"
       style="fill:#ffeeaa;stroke:none;stroke-width:1"
       d="M 376.07142,572.00507 407.5,558.07649 l -20.35714,-10 z"
       inkscape:connector-curvature="0" />
    <path
       id="path4831"
       style="fill:#ffeeaa;stroke:none;stroke-width:1"
       d="m 341.07142,553.4336 35,18.57147 -11.42856,-26.78576 z"
       inkscape:connector-curvature="0" />
    <path
       id="path4833"
       style="fill:#ffe680;stroke:none;stroke-width:1"
       d="m 407.5,558.07649 11.42856,18.57141 0,-10.7143 z"
       inkscape:connector-curvature="0" />
    <path
       id="path4835"
       style="fill:#ffe680;stroke:none;stroke-width:1"
       d="m 337.5,569.86219 38.57142,2.14288 -35,-18.57147 z"
       inkscape:connector-curvature="0" />
    <path
       id="path4837"
       style="fill:#ffdd55;stroke:none;stroke-width:1"
       d="M 407.5,558.07649 400,595.9336 418.92856,576.6479 Z"
       inkscape:connector-curvature="0" />
    <path
       id="path4839"
       style="fill:#ffdd55;stroke:none;stroke-width:1"
       d="M 376.07142,572.00507 400,595.9336 l 7.5,-37.85711 z"
       inkscape:connector-curvature="0" />
    <path
       id="path4841"
       style="fill:#ffd42a;stroke:none;stroke-width:1"
       d="M 347.14286,602.36219 376.07142,572.00507 337.5,569.86219 Z"
       inkscape:connector-curvature="0" />
    <path
       id="path4843"
       style="fill:#d4aa00;stroke:none;stroke-width:1"
       d="m 316.42856,575.9336 30.7143,26.42859 -9.64286,-32.5 z"
       inkscape:connector-curvature="0" />
    <path
       id="path4845"
       style="fill:#ff5555;stroke:none;stroke-width:1"
       d="m 430.71427,609.50507 22.5,-24.64288 -34.28571,-8.21429 z"
       inkscape:connector-curvature="0" />
    <path
       id="path4847"
       style="fill:#ffdd55;stroke:none;stroke-width:1"
       d="M 374.64286,610.21931 400,595.9336 376.07142,572.00507 Z"
       inkscape:connector-curvature="0" />
    <path
       id="path4849"
       style="fill:#d4aa00;stroke:none;stroke-width:1"
       d="m 347.14286,602.36219 27.5,7.85712 1.42856,-38.21424 z"
       inkscape:connector-curvature="0" />
    <path
       id="path4851"
       style="fill:#ff8080;stroke:none;stroke-width:1"
       d="m 430.71427,609.50507 12.5,3.57142 10,-28.2143 z"
       inkscape:connector-curvature="0" />
    <path
       id="path4853"
       style="fill:#ffe680;stroke:none;stroke-width:1"
       d="m 400,595.9336 30.71427,13.57147 -11.78571,-32.85717 z"
       inkscape:connector-curvature="0" />
    <path
       id="path4855"
       style="fill:#ff5555;stroke:none;stroke-width:1"
       d="m 443.21427,613.07649 21.07144,-8.92859 -11.07144,-19.28571 z"
       inkscape:connector-curvature="0" />
    <path
       id="path4857"
       style="fill:#d40000;stroke:none;stroke-width:1"
       d="m 207.67856,611.46931 40.89287,5.53576 54.99999,-29.64288 z"
       inkscape:connector-curvature="0" />
    <path
       id="path4859"
       style="fill:#aa8800;stroke:none;stroke-width:1"
       d="m 303.57142,587.36219 43.57144,15 -30.7143,-26.42859 z"
       inkscape:connector-curvature="0" />
    <path
       id="path4861"
       style="fill:#800000;stroke:none;stroke-width:1"
       d="m 248.57143,617.00507 29.64284,3.92853 25.35715,-33.57141 z"
       inkscape:connector-curvature="0" />
    <path
       id="path4863"
       style="fill:#ff8080;stroke:none;stroke-width:1"
       d="m 464.28571,604.1479 76.42859,5.71429 -87.50003,-25 z"
       inkscape:connector-curvature="0" />
    <path
       id="path4865"
       style="fill:#ffd42a;stroke:none;stroke-width:1"
       d="M 402.14286,618.79078 430.71427,609.50507 400,595.9336 Z"
       inkscape:connector-curvature="0" />
    <path
       id="path4867"
       style="fill:#d4aa00;stroke:none;stroke-width:1"
       d="m 315,622.00507 32.14286,-19.64288 -43.57144,-15 z"
       inkscape:connector-curvature="0" />
    <path
       id="path4869"
       style="fill:#d4aa00;stroke:none;stroke-width:1"
       d="m 374.64286,610.21931 27.5,8.57147 L 400,595.9336 Z"
       inkscape:connector-curvature="0" />
    <path
       id="path4871"
       style="fill:#ff5555;stroke:none;stroke-width:1"
       d="m 485,622.71931 55.7143,-12.85712 -76.42859,-5.71429 z"
       inkscape:connector-curvature="0" />
    <path
       id="path4873"
       style="fill:#ff8080;stroke:none;stroke-width:1"
       d="m 446.78571,626.29078 17.5,-22.14288 -21.07144,8.92859 z"
       inkscape:connector-curvature="0" />
    <path
       id="path4875"
       style="fill:#aa8800;stroke:none;stroke-width:1"
       d="M 278.21427,620.9336 315,622.00507 303.57142,587.36219 Z"
       inkscape:connector-curvature="0" />
    <path
       id="path4877"
       style="fill:#ff5555;stroke:none;stroke-width:1"
       d="m 430.71427,609.50507 16.07144,16.78571 -3.57144,-13.21429 z"
       inkscape:connector-curvature="0" />
    <path
       id="path4879"
       style="fill:#aa8800;stroke:none;stroke-width:1"
       d="M 327.85715,640.21931 347.14286,602.36219 315,622.00507 Z"
       inkscape:connector-curvature="0" />
    <path
       id="path4881"
       style="fill:#ff2a2a;stroke:none;stroke-width:1"
       d="M 446.78571,626.29078 485,622.71931 464.28571,604.1479 Z"
       inkscape:connector-curvature="0" />
    <path
       id="path4883"
       style="fill:#d4aa00;stroke:none;stroke-width:1"
       d="m 383.92856,644.1479 18.2143,-25.35712 -27.5,-8.57147 z"
       inkscape:connector-curvature="0" />
    <path
       id="path4885"
       style="fill:#550000;stroke:none;stroke-width:1"
       d="M 248.57143,617.00507 277.5,640.57649 278.21427,620.9336 Z"
       inkscape:connector-curvature="0" />
    <path
       id="path4887"
       style="fill:#806600;stroke:none;stroke-width:1"
       d="M 277.5,640.57649 315,622.00507 278.21427,620.9336 Z"
       inkscape:connector-curvature="0" />
    <path
       id="path4889"
       style="fill:#806600;stroke:none;stroke-width:1"
       d="M 308.57142,655.57649 327.85715,640.21931 315,622.00507 Z"
       inkscape:connector-curvature="0" />
    <path
       id="path4891"
       style="fill:#aa8800;stroke:none;stroke-width:1"
       d="m 383.92856,644.1479 25,10 -6.7857,-35.35712 z"
       inkscape:connector-curvature="0" />
    <path
       id="path4893"
       style="fill:#554400;stroke:none;stroke-width:1"
       d="m 277.5,640.57649 31.07142,15 L 315,622.00507 Z"
       inkscape:connector-curvature="0" />
    <path
       id="path4895"
       style="fill:#ffcc00;stroke:none;stroke-width:1"
       d="m 327.85715,640.21931 46.78571,-30 -27.5,-7.85712 z"
       inkscape:connector-curvature="0" />
    <path
       id="path4897"
       style="fill:#ffdd55;stroke:none;stroke-width:1"
       d="m 408.92856,654.1479 21.78571,-44.64283 -28.57141,9.28571 z"
       inkscape:connector-curvature="0" />
    <path
       id="path4899"
       style="fill:#ffe680;stroke:none;stroke-width:1"
       d="m 408.92856,654.1479 37.85715,-27.85712 -16.07144,-16.78571 z"
       inkscape:connector-curvature="0" />
    <path
       id="path4901"
       style="fill:#ffdd55;stroke:none;stroke-width:1"
       d="m 327.85715,640.21931 56.07141,3.92859 -9.2857,-33.92859 z"
       inkscape:connector-curvature="0" />
    <path
       id="path4903"
       style="fill:#ff5555;stroke:none;stroke-width:1"
       d="M 451.78571,665.9336 485,622.71931 l -38.21429,3.57147 z"
       inkscape:connector-curvature="0" />
    <path
       id="path4905"
       style="fill:#aa0000;stroke:none;stroke-width:1"
       d="m 272.85715,661.29078 35.71427,-5.71429 -31.07142,-15 z"
       inkscape:connector-curvature="0" />
    <path
       id="path4907"
       style="fill:#800000;stroke:none;stroke-width:1"
       d="M 248.57143,617.00507 272.85715,661.29078 277.5,640.57649 Z"
       inkscape:connector-curvature="0" />
    <path
       id="path4909"
       style="fill:#ff2a2a;stroke:none;stroke-width:1"
       d="m 408.92856,654.1479 42.85715,11.7857 -5,-39.64282 z"
       inkscape:connector-curvature="0" />
    <path
       id="path4911"
       style="fill:#d4aa00;stroke:none;stroke-width:1"
       d="m 308.57142,655.57649 29.64285,18.92858 -10.35712,-34.28576 z"
       inkscape:connector-curvature="0" />
    <path
       id="path4913"
       style="fill:#ffcc00;stroke:none;stroke-width:1"
       d="m 338.21427,674.50507 45.71429,-30.35717 -56.07141,-3.92859 z"
       inkscape:connector-curvature="0" />
    <path
       id="path4915"
       style="fill:#d4aa00;stroke:none;stroke-width:1"
       d="m 383.92856,644.1479 14.64286,34.64288 10.35714,-24.64288 z"
       inkscape:connector-curvature="0" />
    <path
       id="path4917"
       style="fill:#d4aa00;stroke:none;stroke-width:1"
       d="m 338.21427,674.50507 25,8.57142 20.71429,-38.92859 z"
       inkscape:connector-curvature="0" />
    <path
       id="path4919"
       style="fill:#aa8800;stroke:none;stroke-width:1"
       d="m 363.21427,683.07649 35.35715,-4.28571 -14.64286,-34.64288 z"
       inkscape:connector-curvature="0" />
    <path
       id="path4921"
       style="fill:#ff0000;stroke:none;stroke-width:1"
       d="M 398.57142,678.79078 451.78571,665.9336 408.92856,654.1479 Z"
       inkscape:connector-curvature="0" />
    <path
       id="path4923"
       style="fill:#aa0000;stroke:none;stroke-width:1"
       d="m 207.67856,611.46931 65.17859,49.82147 -24.28572,-44.28571 z"
       inkscape:connector-curvature="0" />
    <path
       id="path4925"
       style="fill:#ff0000;stroke:none;stroke-width:1"
       d="m 365,715.9336 33.57142,-37.14282 -35.35715,4.28571 z"
       inkscape:connector-curvature="0" />
    <path
       id="path4927"
       style="fill:#d40000;stroke:none;stroke-width:1"
       d="M 338.21427,674.50507 365,715.9336 363.21427,683.07649 Z"
       inkscape:connector-curvature="0" />
    <path
       id="path4929"
       style="fill:#d40000;stroke:none;stroke-width:1"
       d="m 272.85715,661.29078 65.35712,13.21429 -29.64285,-18.92858 z"
       inkscape:connector-curvature="0" />
    <path
       id="path4931"
       style="fill:#ff2a2a;stroke:none;stroke-width:1"
       d="M 451.78571,665.9336 540.7143,609.86219 485,622.71931 Z"
       inkscape:connector-curvature="0" />
    <path
       id="path4933"
       style="fill:#ff0000;stroke:none;stroke-width:1"
       d="M 272.85715,661.29078 365,715.9336 338.21427,674.50507 Z"
       inkscape:connector-curvature="0" />
    <path
       id="path4935"
       style="fill:#ff2a2a;stroke:none;stroke-width:1"
       d="m 365,715.9336 86.78571,-50 -53.21429,12.85718 z"
       inkscape:connector-curvature="0" />
  </g>
</svg>
