<?xml version="1.0" encoding="UTF-8" standalone="no"?>
<!-- Created with Inkscape (http://www.inkscape.org/) -->

<svg
   xmlns:dc="http://purl.org/dc/elements/1.1/"
   xmlns:cc="http://creativecommons.org/ns#"
   xmlns:rdf="http://www.w3.org/1999/02/22-rdf-syntax-ns#"
   xmlns:svg="http://www.w3.org/2000/svg"
   xmlns="http://www.w3.org/2000/svg"
   xmlns:sodipodi="http://sodipodi.sourceforge.net/DTD/sodipodi-0.dtd"
   xmlns:inkscape="http://www.inkscape.org/namespaces/inkscape"
   width="210mm"
   height="297mm"
   viewBox="0 0 744.09448819 1052.3622047"
   id="svg4956"
   version="1.1"
   inkscape:version="0.91 r13725"
   sodipodi:docname="goods_6.svg"
   inkscape:export-filename="/home/john/Projects/merchant/android/assets/images/goods_6.png"
   inkscape:export-xdpi="124.00753"
   inkscape:export-ydpi="124.00753">
  <sodipodi:namedview
     id="base"
     pagecolor="#ffffff"
     bordercolor="#666666"
     borderopacity="1.0"
     inkscape:pageopacity="0.0"
     inkscape:pageshadow="2"
     inkscape:zoom="1.746547"
     inkscape:cx="301.73709"
     inkscape:cy="524.70177"
     inkscape:document-units="px"
     inkscape:current-layer="layer1"
     showgrid="false"
     inkscape:window-width="1855"
     inkscape:window-height="1056"
     inkscape:window-x="65"
     inkscape:window-y="24"
     inkscape:window-maximized="1" />
  <defs
     id="defs4958" />
  <metadata
     id="metadata4961">
    <rdf:RDF>
      <cc:Work
         rdf:about="">
        <dc:format>image/svg+xml</dc:format>
        <dc:type
           rdf:resource="http://purl.org/dc/dcmitype/StillImage" />
        <dc:title></dc:title>
      </cc:Work>
    </rdf:RDF>
  </metadata>
  <g
     id="layer1"
     inkscape:groupmode="layer"
     inkscape:label="Layer 1">
    <path
       inkscape:connector-curvature="0"
       d="m 268.52985,399.07315 20.6121,-7.44327 -17.7493,-18.60815 z"
       style="fill:#ac9393;stroke:none;stroke-width:1"
       id="path6015" />
    <path
       inkscape:connector-curvature="0"
       d="m 289.14195,391.62988 83.59353,0 -101.34283,-18.60815 z"
       style="fill:none;stroke:none;stroke-width:1"
       id="path6017" />
    <path
       inkscape:connector-curvature="0"
       d="m 247.34519,389.33966 21.18466,9.73349 2.8628,-26.05142 z"
       style="fill:#916f6f;stroke:none;stroke-width:1"
       id="path6013" />
    <path
       inkscape:connector-curvature="0"
       d="m 268.52985,399.07315 17.17676,23.47488 3.43534,-30.91815 z"
       style="fill:#c8b7b7;stroke:none;stroke-width:1"
       id="path6019" />
    <path
       inkscape:connector-curvature="0"
       d="m 289.14195,391.62988 54.9656,32.63584 28.62793,-32.63584 z"
       style="fill:none;stroke:none;stroke-width:1"
       id="path6021" />
    <path
       inkscape:connector-curvature="0"
       d="m 344.10755,424.26572 32.06326,-16.60419 -3.43533,-16.03165 z"
       style="fill:#916f6f;stroke:none;stroke-width:1"
       id="path6023" />
    <path
       inkscape:connector-curvature="0"
       d="m 242.76473,438.00711 25.76512,-38.93396 -21.18466,-9.73349 z"
       style="fill:#6c5353;stroke:none;stroke-width:1"
       id="path6025" />
    <path
       inkscape:connector-curvature="0"
       d="m 285.70661,422.54803 58.40094,1.71769 -54.9656,-32.63584 z"
       style="fill:none;stroke:none;stroke-width:1"
       id="path6027" />
    <path
       inkscape:connector-curvature="0"
       d="m 344.10755,424.26572 24.04746,20.03955 8.0158,-36.64374 z"
       style="fill:#ac9393;stroke:none;stroke-width:1"
       id="path6029" />
    <path
       inkscape:connector-curvature="0"
       d="m 368.15501,444.30527 24.04745,-12.02375 -16.03165,-24.61999 z"
       style="fill:#c8b7b7;stroke:none;stroke-width:1"
       id="path6031" />
    <path
       inkscape:connector-curvature="0"
       d="m 242.76473,438.00711 42.94188,-15.45908 -17.17676,-23.47488 z"
       style="fill:#916f6f;stroke:none;stroke-width:1"
       id="path6033" />
    <path
       inkscape:connector-curvature="0"
       d="m 392.20246,432.28152 -19.46698,-40.65164 3.43533,16.03165 z"
       style="fill:#e3dbdb;stroke:none;stroke-width:1"
       id="path6035" />
    <path
       inkscape:connector-curvature="0"
       d="m 187.79913,457.47409 54.9656,-19.46698 4.58046,-48.66745 z"
       style="fill:none;stroke:none;stroke-width:1"
       id="path6037" />
    <path
       inkscape:connector-curvature="0"
       d="m 242.76473,438.00711 45.80467,13.16885 -2.86279,-28.62793 z"
       style="fill:#ac9393;stroke:none;stroke-width:1"
       id="path6039" />
    <path
       inkscape:connector-curvature="0"
       d="m 264.52195,464.91736 24.04745,-13.7414 -45.80467,-13.16885 z"
       style="fill:#916f6f;stroke:none;stroke-width:1"
       id="path6041" />
    <path
       inkscape:connector-curvature="0"
       d="m 288.5694,451.17596 55.53815,-26.91024 -58.40094,-1.71769 z"
       style="fill:#d38d5f;stroke:none;stroke-width:1"
       id="path6043" />
    <path
       inkscape:connector-curvature="0"
       d="m 241.04705,451.7485 23.4749,13.16886 -21.75722,-26.91025 z"
       style="fill:#6c5353;stroke:none;stroke-width:1"
       id="path6045" />
    <path
       inkscape:connector-curvature="0"
       d="m 187.79913,457.47409 53.24792,-5.72559 1.71768,-13.74139 z"
       style="fill:#a05a2c;stroke:none;stroke-width:1"
       id="path6047" />
    <path
       inkscape:connector-curvature="0"
       d="m 390.48478,490.10992 1.71768,-57.8284 -24.04745,12.02375 z"
       style="fill:#ac9393;stroke:none;stroke-width:1"
       id="path6051" />
    <path
       inkscape:connector-curvature="0"
       d="m 344.10755,424.26572 0.57257,65.27166 23.47489,-45.23211 z"
       style="fill:#916f6f;stroke:none;stroke-width:1"
       id="path6053" />
    <path
       inkscape:connector-curvature="0"
       d="m 288.5694,451.17596 56.11072,38.36142 -0.57257,-65.27166 z"
       style="fill:#d38d5f;stroke:none;stroke-width:1"
       id="path6055" />
    <path
       inkscape:connector-curvature="0"
       d="m 206.12099,494.11783 34.92606,-42.36933 -53.24792,5.72559 z"
       style="fill:#c87137;stroke:none;stroke-width:1"
       id="path6057" />
    <path
       inkscape:connector-curvature="0"
       d="m 344.68012,489.53738 45.80466,0.57254 -22.32977,-45.80465 z"
       style="fill:#c8b7b7;stroke:none;stroke-width:1"
       id="path6059" />
    <path
       inkscape:connector-curvature="0"
       d="m 363.57453,510.72202 26.91025,-20.6121 -45.80466,-0.57254 z"
       style="fill:#ac9393;stroke:none;stroke-width:1"
       id="path6061" />
    <path
       inkscape:connector-curvature="0"
       d="m 238.75681,511.29459 25.76514,-46.37723 -23.4749,-13.16886 z"
       style="fill:#c87137;stroke:none;stroke-width:1"
       id="path6063" />
    <path
       inkscape:connector-curvature="0"
       d="m 206.12099,494.11783 32.63582,17.17676 2.29024,-59.54609 z"
       style="fill:#a05a2c;stroke:none;stroke-width:1"
       id="path6065" />
    <path
       inkscape:connector-curvature="0"
       d="m 219.28983,517.02014 19.46698,-5.72555 -32.63582,-17.17676 z"
       style="fill:#88aa00;stroke:none;stroke-width:1"
       id="path6067" />
    <path
       inkscape:connector-curvature="0"
       d="m 390.48478,490.10992 61.8363,38.93396 -60.11862,-96.76236 z"
       style="fill:#d38d5f;stroke:none;stroke-width:1"
       id="path6069" />
    <path
       inkscape:connector-curvature="0"
       d="M 452.32108,529.04388 558.24439,456.90155 392.20246,432.28152 Z"
       style="fill:#deaa87;stroke:none;stroke-width:1"
       id="path6071" />
    <path
       inkscape:connector-curvature="0"
       d="m 223.29774,539.92249 15.45907,-28.6279 -19.46698,5.72555 z"
       style="fill:#aad400;stroke:none;stroke-width:1"
       id="path6073" />
    <path
       inkscape:connector-curvature="0"
       d="m 264.52195,464.91736 80.15817,24.62002 -56.11072,-38.36142 z"
       style="fill:#c87137;stroke:none;stroke-width:1"
       id="path6075" />
    <path
       inkscape:connector-curvature="0"
       d="m 264.52195,464.91736 40.65164,79.01306 39.50653,-54.39304 z"
       style="fill:#a05a2c;stroke:none;stroke-width:1"
       id="path6077" />
    <path
       inkscape:connector-curvature="0"
       d="m 207.26611,547.36578 16.03163,-7.44329 -4.00791,-22.90235 z"
       style="fill:#88aa00;stroke:none;stroke-width:1"
       id="path6079" />
    <path
       inkscape:connector-curvature="0"
       d="m 238.75681,511.29459 66.41678,32.63583 -40.65164,-79.01306 z"
       style="fill:#784421;stroke:none;stroke-width:1"
       id="path6081" />
    <path
       inkscape:connector-curvature="0"
       d="m 206.12099,494.11783 1.14512,53.24795 12.02372,-30.34564 z"
       style="fill:#668000;stroke:none;stroke-width:1"
       id="path6083" />
    <path
       inkscape:connector-curvature="0"
       d="m 223.29774,539.92249 30.91815,13.16888 -15.45908,-41.79678 z"
       style="fill:#c87137;stroke:none;stroke-width:1"
       id="path6085" />
    <path
       inkscape:connector-curvature="0"
       d="m 305.17359,543.93042 58.40094,-33.2084 -18.89441,-21.18464 z"
       style="fill:#c87137;stroke:none;stroke-width:1"
       id="path6087" />
    <path
       inkscape:connector-curvature="0"
       d="m 254.21589,553.09137 50.9577,-9.16095 -66.41678,-32.63583 z"
       style="fill:#a05a2c;stroke:none;stroke-width:1"
       id="path6089" />
    <path
       inkscape:connector-curvature="0"
       d="m 371.59034,550.22858 18.89444,-60.11866 -26.91025,20.6121 z"
       style="fill:#a05a2c;stroke:none;stroke-width:1"
       id="path6091" />
    <path
       inkscape:connector-curvature="0"
       d="m 234.74891,559.96204 19.46698,-6.87067 -30.91815,-13.16888 z"
       style="fill:#a05a2c;stroke:none;stroke-width:1"
       id="path6093" />
    <path
       inkscape:connector-curvature="0"
       d="m 363.57453,510.72202 -18.89441,55.53817 26.91022,-16.03161 z"
       style="fill:#c87137;stroke:none;stroke-width:1"
       id="path6095" />
    <path
       inkscape:connector-curvature="0"
       d="m 305.17359,543.93042 39.50653,22.32977 18.89441,-55.53817 z"
       style="fill:#a05a2c;stroke:none;stroke-width:1"
       id="path6097" />
    <path
       inkscape:connector-curvature="0"
       d="m 254.21589,553.09137 30.34558,13.16882 20.61212,-22.32977 z"
       style="fill:#784421;stroke:none;stroke-width:1"
       id="path6099" />
    <path
       inkscape:connector-curvature="0"
       d="m 391.62989,565.11505 -1.14511,-75.00513 -18.89444,60.11866 z"
       style="fill:#c87137;stroke:none;stroke-width:1"
       id="path6101" />
    <path
       inkscape:connector-curvature="0"
       d="m 391.62989,565.11505 60.69119,-36.07117 -61.8363,-38.93396 z"
       style="fill:#deaa87;stroke:none;stroke-width:1"
       id="path6103" />
    <path
       inkscape:connector-curvature="0"
       d="m 207.26611,547.36578 27.4828,12.59626 -11.45117,-20.03955 z"
       style="fill:#784421;stroke:none;stroke-width:1"
       id="path6105" />
    <path
       inkscape:connector-curvature="0"
       d="m 317.1973,566.83276 27.48282,-0.57257 -39.50653,-22.32977 z"
       style="fill:#aad400;stroke:none;stroke-width:1"
       id="path6107" />
    <path
       inkscape:connector-curvature="0"
       d="m 267.95728,572.55835 16.60419,-6.29816 -30.34558,-13.16882 z"
       style="fill:#a05a2c;stroke:none;stroke-width:1"
       id="path6109" />
    <path
       inkscape:connector-curvature="0"
       d="m 205.54844,570.26807 29.20047,-10.30603 -27.4828,-12.59626 z"
       style="fill:#502d16;stroke:none;stroke-width:1"
       id="path6111" />
    <path
       inkscape:connector-curvature="0"
       d="m 234.74891,559.96204 16.60419,16.03161 2.86279,-22.90228 z"
       style="fill:#784421;stroke:none;stroke-width:1"
       id="path6113" />
    <path
       inkscape:connector-curvature="0"
       d="m 251.3531,575.99365 16.60418,-3.4353 -13.74139,-19.46698 z"
       style="fill:#502d16;stroke:none;stroke-width:1"
       id="path6115" />
    <path
       inkscape:connector-curvature="0"
       d="m 284.56147,566.26019 32.63583,0.57257 -12.02371,-22.90234 z"
       style="fill:#88aa00;stroke:none;stroke-width:1"
       id="path6117" />
    <path
       inkscape:connector-curvature="0"
       d="m 284.56147,566.26019 19.46701,16.60419 13.16882,-16.03162 z"
       style="fill:#668000;stroke:none;stroke-width:1"
       id="path6119" />
    <path
       inkscape:connector-curvature="0"
       d="m 330.36616,584.00952 14.31396,-17.74933 -27.48282,0.57257 z"
       style="fill:#ccff00;stroke:none;stroke-width:1"
       id="path6121" />
    <path
       inkscape:connector-curvature="0"
       d="m 267.95728,572.55835 16.03165,17.1767 0.57254,-23.47486 z"
       style="fill:#c87137;stroke:none;stroke-width:1"
       id="path6123" />
    <path
       inkscape:connector-curvature="0"
       d="m 283.98893,589.73505 20.03955,-6.87067 -19.46701,-16.60419 z"
       style="fill:#a05a2c;stroke:none;stroke-width:1"
       id="path6125" />
    <path
       inkscape:connector-curvature="0"
       d="m 304.02848,582.86438 26.33768,1.14514 -13.16886,-17.17676 z"
       style="fill:#88aa00;stroke:none;stroke-width:1"
       id="path6127" />
    <path
       inkscape:connector-curvature="0"
       d="m 188.94425,598.32343 15.45906,-6.87067 1.14513,-21.18469 z"
       style="fill:#a05a2c;stroke:none;stroke-width:1"
       id="path6129" />
    <path
       inkscape:connector-curvature="0"
       d="m 344.68012,566.26019 46.94977,-1.14514 -20.03955,-14.88647 z"
       style="fill:#d38d5f;stroke:none;stroke-width:1"
       id="path6131" />
    <path
       inkscape:connector-curvature="0"
       d="m 452.32108,529.04388 107.06839,65.27167 -1.14508,-137.414 z"
       style="fill:#e9c6af;stroke:none;stroke-width:1"
       id="path6133" />
    <path
       inkscape:connector-curvature="0"
       d="m 204.40331,591.45276 30.3456,-31.49072 -29.20047,10.30603 z"
       style="fill:#784421;stroke:none;stroke-width:1"
       id="path6135" />
    <path
       inkscape:connector-curvature="0"
       d="M 204.40331,591.45276 251.3531,575.99365 234.74891,559.96204 Z"
       style="fill:#28170b;stroke:none;stroke-width:1"
       id="path6137" />
    <path
       inkscape:connector-curvature="0"
       d="m 343.53498,610.91974 1.14514,-44.65955 -14.31396,17.74933 z"
       style="fill:#d38d5f;stroke:none;stroke-width:1"
       id="path6139" />
    <path
       inkscape:connector-curvature="0"
       d="m 251.3531,575.99365 32.63583,13.7414 -16.03165,-17.1767 z"
       style="fill:#784421;stroke:none;stroke-width:1"
       id="path6141" />
    <path
       inkscape:connector-curvature="0"
       d="m 452.32108,529.04388 81.87583,81.87586 25.19256,-16.60419 z"
       style="fill:#deaa87;stroke:none;stroke-width:1"
       id="path6143" />
    <path
       inkscape:connector-curvature="0"
       d="m 207.26611,547.36578 -18.32186,50.95765 16.60419,-28.05536 z"
       style="fill:#c87137;stroke:none;stroke-width:1"
       id="path6145" />
    <path
       inkscape:connector-curvature="0"
       d="m 216.42704,617.2179 34.92606,-41.22425 -46.94979,15.45911 z"
       style="fill:#502d16;stroke:none;stroke-width:1"
       id="path6147" />
    <path
       inkscape:connector-curvature="0"
       d="m 343.53498,610.91974 48.09491,-45.80469 -46.94977,1.14514 z"
       style="fill:#deaa87;stroke:none;stroke-width:1"
       id="path6149" />
    <path
       inkscape:connector-curvature="0"
       d="m 188.94425,598.32343 27.48279,18.89447 -12.02373,-25.76514 z"
       style="fill:#784421;stroke:none;stroke-width:1"
       id="path6151" />
    <path
       inkscape:connector-curvature="0"
       d="m 187.79913,457.47409 19.46698,89.89169 -1.14512,-53.24795 z"
       style="fill:#d38d5f;stroke:none;stroke-width:1"
       id="path6153" />
    <path
       inkscape:connector-curvature="0"
       d="m 216.42704,617.2179 27.4828,13.74139 7.44326,-54.96564 z"
       style="fill:#28170b;stroke:none;stroke-width:1"
       id="path6155" />
    <path
       inkscape:connector-curvature="0"
       d="m 391.62989,565.11505 62.40888,65.84424 -1.71769,-101.91541 z"
       style="fill:#e9c6af;stroke:none;stroke-width:1"
       id="path6157" />
    <path
       inkscape:connector-curvature="0"
       d="m 452.32108,529.04388 52.10282,101.34284 29.77301,-19.46698 z"
       style="fill:#e9c6af;stroke:none;stroke-width:1"
       id="path6159" />
    <path
       inkscape:connector-curvature="0"
       d="m 534.19691,610.91974 24.61999,22.32977 0.57257,-38.93396 z"
       style="fill:#c87137;stroke:none;stroke-width:1"
       id="path6161" />
    <path
       inkscape:connector-curvature="0"
       d="m 243.90984,630.95929 40.07909,-41.22424 -32.63583,-13.7414 z"
       style="fill:#502d16;stroke:none;stroke-width:1"
       id="path6163" />
    <path
       inkscape:connector-curvature="0"
       d="m 304.02848,582.86438 39.5065,28.05536 -13.16882,-26.91022 z"
       style="fill:#c87137;stroke:none;stroke-width:1"
       id="path6165" />
    <path
       inkscape:connector-curvature="0"
       d="M 454.03877,630.95929 504.4239,630.38672 452.32108,529.04388 Z"
       style="fill:#deaa87;stroke:none;stroke-width:1"
       id="path6167" />
    <path
       inkscape:connector-curvature="0"
       d="M 188.94425,641.26532 216.42704,617.2179 188.94425,598.32343 Z"
       style="fill:#502d16;stroke:none;stroke-width:1"
       id="path6169" />
    <path
       inkscape:connector-curvature="0"
       d="M 533.62434,650.42627 558.8169,633.24951 534.19691,610.91974 Z"
       style="fill:#a05a2c;stroke:none;stroke-width:1"
       id="path6171" />
    <path
       inkscape:connector-curvature="0"
       d="m 504.4239,630.38672 29.20044,20.03955 0.57257,-39.50653 z"
       style="fill:#784421;stroke:none;stroke-width:1"
       id="path6173" />
    <path
       inkscape:connector-curvature="0"
       d="m 188.94425,641.26532 26.33768,16.03162 1.14511,-40.07904 z"
       style="fill:#28170b;stroke:none;stroke-width:1"
       id="path6175" />
    <path
       inkscape:connector-curvature="0"
       d="m 215.28193,657.29694 28.62791,-26.33765 -27.4828,-13.74139 z"
       style="fill:#502d16;stroke:none;stroke-width:1"
       id="path6177" />
    <path
       inkscape:connector-curvature="0"
       d="m 215.28193,657.29694 29.20047,-14.88648 -0.57256,-11.45117 z"
       style="fill:#28170b;stroke:none;stroke-width:1"
       id="path6179" />
    <path
       inkscape:connector-curvature="0"
       d="m 283.98893,589.73505 59.54605,21.18469 -39.5065,-28.05536 z"
       style="fill:#a05a2c;stroke:none;stroke-width:1"
       id="path6181" />
    <path
       inkscape:connector-curvature="0"
       d="m 187.79913,457.47409 1.14512,140.84934 18.32186,-50.95765 z"
       style="fill:none;stroke:none;stroke-width:1"
       id="path6183" />
    <path
       inkscape:connector-curvature="0"
       d="m 283.98893,589.73505 59.54605,44.6596 0,-23.47491 z"
       style="fill:#c87137;stroke:none;stroke-width:1"
       id="path6185" />
    <path
       inkscape:connector-curvature="0"
       d="m 387.62199,663.02252 4.0079,-97.90747 -48.09491,45.80469 z"
       style="fill:#d38d5f;stroke:none;stroke-width:1"
       id="path6187" />
    <path
       inkscape:connector-curvature="0"
       d="m 343.53498,634.39465 44.08701,28.62787 -44.08701,-52.10278 z"
       style="fill:#a05a2c;stroke:none;stroke-width:1"
       id="path6189" />
    <path
       inkscape:connector-curvature="0"
       d="m 387.62199,663.02252 66.41678,-32.06323 -62.40888,-65.84424 z"
       style="fill:#deaa87;stroke:none;stroke-width:1"
       id="path6191" />
    <path
       inkscape:connector-curvature="0"
       d="m 342.38987,665.31281 45.23212,-2.29029 -44.08701,-28.62787 z"
       style="fill:#c87137;stroke:none;stroke-width:1"
       id="path6193" />
    <path
       inkscape:connector-curvature="0"
       d="m 244.4824,642.41046 39.50653,-52.67541 -40.07909,41.22424 z"
       style="fill:#c87137;stroke:none;stroke-width:1"
       id="path6195" />
    <path
       inkscape:connector-curvature="0"
       d="m 404.22617,683.06207 49.8126,-52.10278 -66.41678,32.06323 z"
       style="fill:#e9c6af;stroke:none;stroke-width:1"
       id="path6197" />
    <path
       inkscape:connector-curvature="0"
       d="m 244.4824,642.41046 99.05258,-8.01581 -59.54605,-44.6596 z"
       style="fill:#d38d5f;stroke:none;stroke-width:1"
       id="path6199" />
    <path
       inkscape:connector-curvature="0"
       d="m 343.53498,634.39465 -10.8786,45.80463 9.73349,-14.88647 z"
       style="fill:#d38d5f;stroke:none;stroke-width:1"
       id="path6201" />
    <path
       inkscape:connector-curvature="0"
       d="m 244.4824,642.41046 88.17398,37.78882 10.8786,-45.80463 z"
       style="fill:#c87137;stroke:none;stroke-width:1"
       id="path6203" />
    <path
       inkscape:connector-curvature="0"
       d="m 342.38987,665.31281 28.05536,32.6358 17.17676,-34.92609 z"
       style="fill:#a05a2c;stroke:none;stroke-width:1"
       id="path6205" />
    <path
       inkscape:connector-curvature="0"
       d="m 370.44523,697.94861 33.78094,-14.88654 -16.60418,-20.03955 z"
       style="fill:#c87137;stroke:none;stroke-width:1"
       id="path6207" />
    <path
       inkscape:connector-curvature="0"
       d="m 332.65638,680.19928 37.78885,17.74933 -28.05536,-32.6358 z"
       style="fill:#c87137;stroke:none;stroke-width:1"
       id="path6209" />
    <path
       inkscape:connector-curvature="0"
       d="m 370.44523,697.94861 33.78094,20.61212 0,-35.49866 z"
       style="fill:#a05a2c;stroke:none;stroke-width:1"
       id="path6211" />
    <path
       inkscape:connector-curvature="0"
       d="m 331.51127,723.71375 38.93396,-25.76514 -37.78885,-17.74933 z"
       style="fill:#502d16;stroke:none;stroke-width:1"
       id="path6213" />
    <path
       inkscape:connector-curvature="0"
       d="m 372.73548,740.8905 31.49069,-22.32977 -33.78094,-20.61212 z"
       style="fill:#784421;stroke:none;stroke-width:1"
       id="path6215" />
    <path
       inkscape:connector-curvature="0"
       d="m 331.51127,723.71375 41.22421,17.17675 -2.29025,-42.94189 z"
       style="fill:#28170b;stroke:none;stroke-width:1"
       id="path6217" />
    <path
       inkscape:connector-curvature="0"
       d="m 244.4824,642.41046 87.02887,81.30329 1.14511,-43.51447 z"
       style="fill:none;stroke:none;stroke-width:1"
       id="path6219" />
    <path
       inkscape:connector-curvature="0"
       d="m 454.03877,630.95929 79.58557,19.46698 -29.20044,-20.03955 z"
       style="fill:none;stroke:none;stroke-width:1"
       id="path6221" />
    <path
       inkscape:connector-curvature="0"
       d="m 404.22617,718.56073 49.8126,-87.60144 -49.8126,52.10278 z"
       style="fill:none;stroke:none;stroke-width:1"
       id="path6223" />
    <path
       inkscape:connector-curvature="0"
       d="M 404.22617,718.56073 533.62434,650.42627 454.03877,630.95929 Z"
       style="fill:none;stroke:none;stroke-width:1"
       id="path6225" />
    <path
       inkscape:connector-curvature="0"
       d="M 215.28193,657.29694 331.51127,723.71375 244.4824,642.41046 Z"
       style="fill:none;stroke:none;stroke-width:1"
       id="path6227" />
    <path
       inkscape:connector-curvature="0"
       d="M 372.73548,740.8905 533.62434,650.42627 404.22617,718.56073 Z"
       style="fill:none;stroke:none;stroke-width:1"
       id="path6229" />
    <path
       inkscape:connector-curvature="0"
       d="m 187.79913,457.47409 1.14512,183.79123 0,-42.94189 z"
       style="fill:none;stroke:none;stroke-width:1"
       id="path6231" />
    <path
       id="path6520"
       style="fill:#ac9393;stroke:none;stroke-width:1"
       d="m 268.52985,399.07315 20.6121,-7.44327 -17.7493,-18.60815 z"
       inkscape:connector-curvature="0" />
    <path
       id="path6522"
       style="fill:none;stroke:none;stroke-width:1"
       d="m 289.14195,391.62988 83.59353,0 -101.34283,-18.60815 z"
       inkscape:connector-curvature="0" />
    <path
       id="path6524"
       style="fill:#916f6f;stroke:none;stroke-width:1"
       d="m 247.34519,389.33966 21.18466,9.73349 2.8628,-26.05142 z"
       inkscape:connector-curvature="0" />
    <path
       id="path6526"
       style="fill:#c8b7b7;stroke:none;stroke-width:1"
       d="m 268.52985,399.07315 17.17676,23.47488 3.43534,-30.91815 z"
       inkscape:connector-curvature="0" />
    <path
       id="path6528"
       style="fill:none;stroke:none;stroke-width:1"
       d="m 289.14195,391.62988 54.9656,32.63584 28.62793,-32.63584 z"
       inkscape:connector-curvature="0" />
    <path
       id="path6530"
       style="fill:#916f6f;stroke:none;stroke-width:1"
       d="m 344.10755,424.26572 32.06326,-16.60419 -3.43533,-16.03165 z"
       inkscape:connector-curvature="0" />
    <path
       id="path6532"
       style="fill:#6c5353;stroke:none;stroke-width:1"
       d="m 242.76473,438.00711 25.76512,-38.93396 -21.18466,-9.73349 z"
       inkscape:connector-curvature="0" />
    <path
       id="path6534"
       style="fill:none;stroke:none;stroke-width:1"
       d="m 285.70661,422.54803 58.40094,1.71769 -54.9656,-32.63584 z"
       inkscape:connector-curvature="0" />
    <path
       id="path6536"
       style="fill:#ac9393;stroke:none;stroke-width:1"
       d="m 344.10755,424.26572 24.04746,20.03955 8.0158,-36.64374 z"
       inkscape:connector-curvature="0" />
    <path
       id="path6538"
       style="fill:#c8b7b7;stroke:none;stroke-width:1"
       d="m 368.15501,444.30527 24.04745,-12.02375 -16.03165,-24.61999 z"
       inkscape:connector-curvature="0" />
    <path
       id="path6540"
       style="fill:#916f6f;stroke:none;stroke-width:1"
       d="m 242.76473,438.00711 42.94188,-15.45908 -17.17676,-23.47488 z"
       inkscape:connector-curvature="0" />
    <path
       id="path6542"
       style="fill:#e3dbdb;stroke:none;stroke-width:1"
       d="m 392.20246,432.28152 -19.46698,-40.65164 3.43533,16.03165 z"
       inkscape:connector-curvature="0" />
    <path
       id="path6544"
       style="fill:none;stroke:none;stroke-width:1"
       d="m 187.79913,457.47409 54.9656,-19.46698 4.58046,-48.66745 z"
       inkscape:connector-curvature="0" />
    <path
       id="path6546"
       style="fill:#ac9393;stroke:none;stroke-width:1"
       d="m 242.76473,438.00711 45.80467,13.16885 -2.86279,-28.62793 z"
       inkscape:connector-curvature="0" />
    <path
       id="path6548"
       style="fill:#916f6f;stroke:none;stroke-width:1"
       d="m 264.52195,464.91736 24.04745,-13.7414 -45.80467,-13.16885 z"
       inkscape:connector-curvature="0" />
    <path
       id="path6550"
       style="fill:#d38d5f;stroke:none;stroke-width:1"
       d="m 288.5694,451.17596 55.53815,-26.91024 -58.40094,-1.71769 z"
       inkscape:connector-curvature="0" />
    <path
       id="path6552"
       style="fill:#6c5353;stroke:none;stroke-width:1"
       d="m 241.04705,451.7485 23.4749,13.16886 -21.75722,-26.91025 z"
       inkscape:connector-curvature="0" />
    <path
       id="path6554"
       style="fill:#a05a2c;stroke:none;stroke-width:1"
       d="m 187.79913,457.47409 53.24792,-5.72559 1.71768,-13.74139 z"
       inkscape:connector-curvature="0" />
    <path
       id="path6556"
       style="fill:#ac9393;stroke:none;stroke-width:1"
       d="m 390.48478,490.10992 1.71768,-57.8284 -24.04745,12.02375 z"
       inkscape:connector-curvature="0" />
    <path
       id="path6558"
       style="fill:#916f6f;stroke:none;stroke-width:1"
       d="m 344.10755,424.26572 0.57257,65.27166 23.47489,-45.23211 z"
       inkscape:connector-curvature="0" />
    <path
       id="path6560"
       style="fill:#d38d5f;stroke:none;stroke-width:1"
       d="m 288.5694,451.17596 56.11072,38.36142 -0.57257,-65.27166 z"
       inkscape:connector-curvature="0" />
    <path
       id="path6562"
       style="fill:#c87137;stroke:none;stroke-width:1"
       d="m 206.12099,494.11783 34.92606,-42.36933 -53.24792,5.72559 z"
       inkscape:connector-curvature="0" />
    <path
       id="path6564"
       style="fill:#c8b7b7;stroke:none;stroke-width:1"
       d="m 344.68012,489.53738 45.80466,0.57254 -22.32977,-45.80465 z"
       inkscape:connector-curvature="0" />
    <path
       id="path6566"
       style="fill:#ac9393;stroke:none;stroke-width:1"
       d="m 363.57453,510.72202 26.91025,-20.6121 -45.80466,-0.57254 z"
       inkscape:connector-curvature="0" />
    <path
       id="path6568"
       style="fill:#c87137;stroke:none;stroke-width:1"
       d="m 238.75681,511.29459 25.76514,-46.37723 -23.4749,-13.16886 z"
       inkscape:connector-curvature="0" />
    <path
       id="path6570"
       style="fill:#a05a2c;stroke:none;stroke-width:1"
       d="m 206.12099,494.11783 32.63582,17.17676 2.29024,-59.54609 z"
       inkscape:connector-curvature="0" />
    <path
       id="path6572"
       style="fill:#88aa00;stroke:none;stroke-width:1"
       d="m 219.28983,517.02014 19.46698,-5.72555 -32.63582,-17.17676 z"
       inkscape:connector-curvature="0" />
    <path
       id="path6574"
       style="fill:#d38d5f;stroke:none;stroke-width:1"
       d="m 390.48478,490.10992 61.8363,38.93396 -60.11862,-96.76236 z"
       inkscape:connector-curvature="0" />
    <path
       id="path6576"
       style="fill:#deaa87;stroke:none;stroke-width:1"
       d="M 452.32108,529.04388 558.24439,456.90155 392.20246,432.28152 Z"
       inkscape:connector-curvature="0" />
    <path
       id="path6578"
       style="fill:#aad400;stroke:none;stroke-width:1"
       d="m 223.29774,539.92249 15.45907,-28.6279 -19.46698,5.72555 z"
       inkscape:connector-curvature="0" />
    <path
       id="path6580"
       style="fill:#c87137;stroke:none;stroke-width:1"
       d="m 264.52195,464.91736 80.15817,24.62002 -56.11072,-38.36142 z"
       inkscape:connector-curvature="0" />
    <path
       id="path6582"
       style="fill:#a05a2c;stroke:none;stroke-width:1"
       d="m 264.52195,464.91736 40.65164,79.01306 39.50653,-54.39304 z"
       inkscape:connector-curvature="0" />
    <path
       id="path6584"
       style="fill:#88aa00;stroke:none;stroke-width:1"
       d="m 207.26611,547.36578 16.03163,-7.44329 -4.00791,-22.90235 z"
       inkscape:connector-curvature="0" />
    <path
       id="path6586"
       style="fill:#784421;stroke:none;stroke-width:1"
       d="m 238.75681,511.29459 66.41678,32.63583 -40.65164,-79.01306 z"
       inkscape:connector-curvature="0" />
    <path
       id="path6588"
       style="fill:#668000;stroke:none;stroke-width:1"
       d="m 206.12099,494.11783 1.14512,53.24795 12.02372,-30.34564 z"
       inkscape:connector-curvature="0" />
    <path
       id="path6590"
       style="fill:#c87137;stroke:none;stroke-width:1"
       d="m 223.29774,539.92249 30.91815,13.16888 -15.45908,-41.79678 z"
       inkscape:connector-curvature="0" />
    <path
       id="path6592"
       style="fill:#c87137;stroke:none;stroke-width:1"
       d="m 305.17359,543.93042 58.40094,-33.2084 -18.89441,-21.18464 z"
       inkscape:connector-curvature="0" />
    <path
       id="path6594"
       style="fill:#a05a2c;stroke:none;stroke-width:1"
       d="m 254.21589,553.09137 50.9577,-9.16095 -66.41678,-32.63583 z"
       inkscape:connector-curvature="0" />
    <path
       id="path6596"
       style="fill:#a05a2c;stroke:none;stroke-width:1"
       d="m 371.59034,550.22858 18.89444,-60.11866 -26.91025,20.6121 z"
       inkscape:connector-curvature="0" />
    <path
       id="path6598"
       style="fill:#a05a2c;stroke:none;stroke-width:1"
       d="m 234.74891,559.96204 19.46698,-6.87067 -30.91815,-13.16888 z"
       inkscape:connector-curvature="0" />
    <path
       id="path6600"
       style="fill:#c87137;stroke:none;stroke-width:1"
       d="m 363.57453,510.72202 -18.89441,55.53817 26.91022,-16.03161 z"
       inkscape:connector-curvature="0" />
    <path
       id="path6602"
       style="fill:#a05a2c;stroke:none;stroke-width:1"
       d="m 305.17359,543.93042 39.50653,22.32977 18.89441,-55.53817 z"
       inkscape:connector-curvature="0" />
    <path
       id="path6604"
       style="fill:#784421;stroke:none;stroke-width:1"
       d="m 254.21589,553.09137 30.34558,13.16882 20.61212,-22.32977 z"
       inkscape:connector-curvature="0" />
    <path
       id="path6606"
       style="fill:#c87137;stroke:none;stroke-width:1"
       d="m 391.62989,565.11505 -1.14511,-75.00513 -18.89444,60.11866 z"
       inkscape:connector-curvature="0" />
    <path
       id="path6608"
       style="fill:#deaa87;stroke:none;stroke-width:1"
       d="m 391.62989,565.11505 60.69119,-36.07117 -61.8363,-38.93396 z"
       inkscape:connector-curvature="0" />
    <path
       id="path6610"
       style="fill:#784421;stroke:none;stroke-width:1"
       d="m 207.26611,547.36578 27.4828,12.59626 -11.45117,-20.03955 z"
       inkscape:connector-curvature="0" />
    <path
       id="path6612"
       style="fill:#aad400;stroke:none;stroke-width:1"
       d="m 317.1973,566.83276 27.48282,-0.57257 -39.50653,-22.32977 z"
       inkscape:connector-curvature="0" />
    <path
       id="path6614"
       style="fill:#a05a2c;stroke:none;stroke-width:1"
       d="m 267.95728,572.55835 16.60419,-6.29816 -30.34558,-13.16882 z"
       inkscape:connector-curvature="0" />
    <path
       id="path6616"
       style="fill:#502d16;stroke:none;stroke-width:1"
       d="m 205.54844,570.26807 29.20047,-10.30603 -27.4828,-12.59626 z"
       inkscape:connector-curvature="0" />
    <path
       id="path6618"
       style="fill:#784421;stroke:none;stroke-width:1"
       d="m 234.74891,559.96204 16.60419,16.03161 2.86279,-22.90228 z"
       inkscape:connector-curvature="0" />
    <path
       id="path6620"
       style="fill:#502d16;stroke:none;stroke-width:1"
       d="m 251.3531,575.99365 16.60418,-3.4353 -13.74139,-19.46698 z"
       inkscape:connector-curvature="0" />
    <path
       id="path6622"
       style="fill:#88aa00;stroke:none;stroke-width:1"
       d="m 284.56147,566.26019 32.63583,0.57257 -12.02371,-22.90234 z"
       inkscape:connector-curvature="0" />
    <path
       id="path6624"
       style="fill:#668000;stroke:none;stroke-width:1"
       d="m 284.56147,566.26019 19.46701,16.60419 13.16882,-16.03162 z"
       inkscape:connector-curvature="0" />
    <path
       id="path6626"
       style="fill:#ccff00;stroke:none;stroke-width:1"
       d="m 330.36616,584.00952 14.31396,-17.74933 -27.48282,0.57257 z"
       inkscape:connector-curvature="0" />
    <path
       id="path6628"
       style="fill:#c87137;stroke:none;stroke-width:1"
       d="m 267.95728,572.55835 16.03165,17.1767 0.57254,-23.47486 z"
       inkscape:connector-curvature="0" />
    <path
       id="path6630"
       style="fill:#a05a2c;stroke:none;stroke-width:1"
       d="m 283.98893,589.73505 20.03955,-6.87067 -19.46701,-16.60419 z"
       inkscape:connector-curvature="0" />
    <path
       id="path6632"
       style="fill:#88aa00;stroke:none;stroke-width:1"
       d="m 304.02848,582.86438 26.33768,1.14514 -13.16886,-17.17676 z"
       inkscape:connector-curvature="0" />
    <path
       id="path6634"
       style="fill:#a05a2c;stroke:none;stroke-width:1"
       d="m 188.94425,598.32343 15.45906,-6.87067 1.14513,-21.18469 z"
       inkscape:connector-curvature="0" />
    <path
       id="path6636"
       style="fill:#d38d5f;stroke:none;stroke-width:1"
       d="m 344.68012,566.26019 46.94977,-1.14514 -20.03955,-14.88647 z"
       inkscape:connector-curvature="0" />
    <path
       id="path6638"
       style="fill:#e9c6af;stroke:none;stroke-width:1"
       d="m 452.32108,529.04388 107.06839,65.27167 -1.14508,-137.414 z"
       inkscape:connector-curvature="0" />
    <path
       id="path6640"
       style="fill:#784421;stroke:none;stroke-width:1"
       d="m 204.40331,591.45276 30.3456,-31.49072 -29.20047,10.30603 z"
       inkscape:connector-curvature="0" />
    <path
       id="path6642"
       style="fill:#28170b;stroke:none;stroke-width:1"
       d="M 204.40331,591.45276 251.3531,575.99365 234.74891,559.96204 Z"
       inkscape:connector-curvature="0" />
    <path
       id="path6644"
       style="fill:#d38d5f;stroke:none;stroke-width:1"
       d="m 343.53498,610.91974 1.14514,-44.65955 -14.31396,17.74933 z"
       inkscape:connector-curvature="0" />
    <path
       id="path6646"
       style="fill:#784421;stroke:none;stroke-width:1"
       d="m 251.3531,575.99365 32.63583,13.7414 -16.03165,-17.1767 z"
       inkscape:connector-curvature="0" />
    <path
       id="path6648"
       style="fill:#deaa87;stroke:none;stroke-width:1"
       d="m 452.32108,529.04388 81.87583,81.87586 25.19256,-16.60419 z"
       inkscape:connector-curvature="0" />
    <path
       id="path6650"
       style="fill:#c87137;stroke:none;stroke-width:1"
       d="m 207.26611,547.36578 -18.32186,50.95765 16.60419,-28.05536 z"
       inkscape:connector-curvature="0" />
    <path
       id="path6652"
       style="fill:#502d16;stroke:none;stroke-width:1"
       d="m 216.42704,617.2179 34.92606,-41.22425 -46.94979,15.45911 z"
       inkscape:connector-curvature="0" />
    <path
       id="path6654"
       style="fill:#deaa87;stroke:none;stroke-width:1"
       d="m 343.53498,610.91974 48.09491,-45.80469 -46.94977,1.14514 z"
       inkscape:connector-curvature="0" />
    <path
       id="path6656"
       style="fill:#784421;stroke:none;stroke-width:1"
       d="m 188.94425,598.32343 27.48279,18.89447 -12.02373,-25.76514 z"
       inkscape:connector-curvature="0" />
    <path
       id="path6658"
       style="fill:#d38d5f;stroke:none;stroke-width:1"
       d="m 187.79913,457.47409 19.46698,89.89169 -1.14512,-53.24795 z"
       inkscape:connector-curvature="0" />
    <path
       id="path6660"
       style="fill:#28170b;stroke:none;stroke-width:1"
       d="m 216.42704,617.2179 27.4828,13.74139 7.44326,-54.96564 z"
       inkscape:connector-curvature="0" />
    <path
       id="path6662"
       style="fill:#e9c6af;stroke:none;stroke-width:1"
       d="m 391.62989,565.11505 62.40888,65.84424 -1.71769,-101.91541 z"
       inkscape:connector-curvature="0" />
    <path
       id="path6664"
       style="fill:#e9c6af;stroke:none;stroke-width:1"
       d="m 452.32108,529.04388 52.10282,101.34284 29.77301,-19.46698 z"
       inkscape:connector-curvature="0" />
    <path
       id="path6666"
       style="fill:#c87137;stroke:none;stroke-width:1"
       d="m 534.19691,610.91974 24.61999,22.32977 0.57257,-38.93396 z"
       inkscape:connector-curvature="0" />
    <path
       id="path6668"
       style="fill:#502d16;stroke:none;stroke-width:1"
       d="m 243.90984,630.95929 40.07909,-41.22424 -32.63583,-13.7414 z"
       inkscape:connector-curvature="0" />
    <path
       id="path6670"
       style="fill:#c87137;stroke:none;stroke-width:1"
       d="m 304.02848,582.86438 39.5065,28.05536 -13.16882,-26.91022 z"
       inkscape:connector-curvature="0" />
    <path
       id="path6672"
       style="fill:#deaa87;stroke:none;stroke-width:1"
       d="M 454.03877,630.95929 504.4239,630.38672 452.32108,529.04388 Z"
       inkscape:connector-curvature="0" />
    <path
       id="path6674"
       style="fill:#502d16;stroke:none;stroke-width:1"
       d="M 188.94425,641.26532 216.42704,617.2179 188.94425,598.32343 Z"
       inkscape:connector-curvature="0" />
    <path
       id="path6676"
       style="fill:#a05a2c;stroke:none;stroke-width:1"
       d="M 533.62434,650.42627 558.8169,633.24951 534.19691,610.91974 Z"
       inkscape:connector-curvature="0" />
    <path
       id="path6678"
       style="fill:#784421;stroke:none;stroke-width:1"
       d="m 504.4239,630.38672 29.20044,20.03955 0.57257,-39.50653 z"
       inkscape:connector-curvature="0" />
    <path
       id="path6680"
       style="fill:#28170b;stroke:none;stroke-width:1"
       d="m 188.94425,641.26532 26.33768,16.03162 1.14511,-40.07904 z"
       inkscape:connector-curvature="0" />
    <path
       id="path6682"
       style="fill:#502d16;stroke:none;stroke-width:1"
       d="m 215.28193,657.29694 28.62791,-26.33765 -27.4828,-13.74139 z"
       inkscape:connector-curvature="0" />
    <path
       id="path6684"
       style="fill:#28170b;stroke:none;stroke-width:1"
       d="m 215.28193,657.29694 29.20047,-14.88648 -0.57256,-11.45117 z"
       inkscape:connector-curvature="0" />
    <path
       id="path6686"
       style="fill:#a05a2c;stroke:none;stroke-width:1"
       d="m 283.98893,589.73505 59.54605,21.18469 -39.5065,-28.05536 z"
       inkscape:connector-curvature="0" />
    <path
       id="path6688"
       style="fill:none;stroke:none;stroke-width:1"
       d="m 187.79913,457.47409 1.14512,140.84934 18.32186,-50.95765 z"
       inkscape:connector-curvature="0" />
    <path
       id="path6690"
       style="fill:#c87137;stroke:none;stroke-width:1"
       d="m 283.98893,589.73505 59.54605,44.6596 0,-23.47491 z"
       inkscape:connector-curvature="0" />
    <path
       id="path6692"
       style="fill:#d38d5f;stroke:none;stroke-width:1"
       d="m 387.62199,663.02252 4.0079,-97.90747 -48.09491,45.80469 z"
       inkscape:connector-curvature="0" />
    <path
       id="path6694"
       style="fill:#a05a2c;stroke:none;stroke-width:1"
       d="m 343.53498,634.39465 44.08701,28.62787 -44.08701,-52.10278 z"
       inkscape:connector-curvature="0" />
    <path
       id="path6696"
       style="fill:#deaa87;stroke:none;stroke-width:1"
       d="m 387.62199,663.02252 66.41678,-32.06323 -62.40888,-65.84424 z"
       inkscape:connector-curvature="0" />
    <path
       id="path6698"
       style="fill:#c87137;stroke:none;stroke-width:1"
       d="m 342.38987,665.31281 45.23212,-2.29029 -44.08701,-28.62787 z"
       inkscape:connector-curvature="0" />
    <path
       id="path6700"
       style="fill:#c87137;stroke:none;stroke-width:1"
       d="m 244.4824,642.41046 39.50653,-52.67541 -40.07909,41.22424 z"
       inkscape:connector-curvature="0" />
    <path
       id="path6702"
       style="fill:#e9c6af;stroke:none;stroke-width:1"
       d="m 404.22617,683.06207 49.8126,-52.10278 -66.41678,32.06323 z"
       inkscape:connector-curvature="0" />
    <path
       id="path6704"
       style="fill:#d38d5f;stroke:none;stroke-width:1"
       d="m 244.4824,642.41046 99.05258,-8.01581 -59.54605,-44.6596 z"
       inkscape:connector-curvature="0" />
    <path
       id="path6706"
       style="fill:#d38d5f;stroke:none;stroke-width:1"
       d="m 343.53498,634.39465 -10.8786,45.80463 9.73349,-14.88647 z"
       inkscape:connector-curvature="0" />
    <path
       id="path6708"
       style="fill:#c87137;stroke:none;stroke-width:1"
       d="m 244.4824,642.41046 88.17398,37.78882 10.8786,-45.80463 z"
       inkscape:connector-curvature="0" />
    <path
       id="path6710"
       style="fill:#a05a2c;stroke:none;stroke-width:1"
       d="m 342.38987,665.31281 28.05536,32.6358 17.17676,-34.92609 z"
       inkscape:connector-curvature="0" />
    <path
       id="path6712"
       style="fill:#c87137;stroke:none;stroke-width:1"
       d="m 370.44523,697.94861 33.78094,-14.88654 -16.60418,-20.03955 z"
       inkscape:connector-curvature="0" />
    <path
       id="path6714"
       style="fill:#c87137;stroke:none;stroke-width:1"
       d="m 332.65638,680.19928 37.78885,17.74933 -28.05536,-32.6358 z"
       inkscape:connector-curvature="0" />
    <path
       id="path6716"
       style="fill:#a05a2c;stroke:none;stroke-width:1"
       d="m 370.44523,697.94861 33.78094,20.61212 0,-35.49866 z"
       inkscape:connector-curvature="0" />
    <path
       id="path6718"
       style="fill:#502d16;stroke:none;stroke-width:1"
       d="m 331.51127,723.71375 38.93396,-25.76514 -37.78885,-17.74933 z"
       inkscape:connector-curvature="0" />
    <path
       id="path6720"
       style="fill:#784421;stroke:none;stroke-width:1"
       d="m 372.73548,740.8905 31.49069,-22.32977 -33.78094,-20.61212 z"
       inkscape:connector-curvature="0" />
    <path
       id="path6722"
       style="fill:#28170b;stroke:none;stroke-width:1"
       d="m 331.51127,723.71375 41.22421,17.17675 -2.29025,-42.94189 z"
       inkscape:connector-curvature="0" />
    <path
       id="path6724"
       style="fill:none;stroke:none;stroke-width:1"
       d="m 244.4824,642.41046 87.02887,81.30329 1.14511,-43.51447 z"
       inkscape:connector-curvature="0" />
    <path
       id="path6726"
       style="fill:none;stroke:none;stroke-width:1"
       d="m 454.03877,630.95929 79.58557,19.46698 -29.20044,-20.03955 z"
       inkscape:connector-curvature="0" />
    <path
       id="path6728"
       style="fill:none;stroke:none;stroke-width:1"
       d="m 404.22617,718.56073 49.8126,-87.60144 -49.8126,52.10278 z"
       inkscape:connector-curvature="0" />
    <path
       id="path6730"
       style="fill:none;stroke:none;stroke-width:1"
       d="M 404.22617,718.56073 533.62434,650.42627 454.03877,630.95929 Z"
       inkscape:connector-curvature="0" />
    <path
       id="path6732"
       style="fill:none;stroke:none;stroke-width:1"
       d="M 215.28193,657.29694 331.51127,723.71375 244.4824,642.41046 Z"
       inkscape:connector-curvature="0" />
    <path
       id="path6734"
       style="fill:none;stroke:none;stroke-width:1"
       d="M 372.73548,740.8905 533.62434,650.42627 404.22617,718.56073 Z"
       inkscape:connector-curvature="0" />
    <path
       id="path6736"
       style="fill:none;stroke:none;stroke-width:1"
       d="m 187.79913,457.47409 1.14512,183.79123 0,-42.94189 z"
       inkscape:connector-curvature="0" />
  </g>
</svg>
